# xmcd
#
# Track frame offsets:
#	150
#	23380
#	47942
#	71354
#	94727
#	116846
#	141838
#	162495
#
# Disc length: 2562 seconds
#
# Revision: 1
# Processed by: cddbd v1.5.2PL0 Copyright (c) Steve Scherf et al.
# Submitted via: EZCDAudioConverter 8.0.2.1
#
DISCID=680a0008
DTITLE=Dương Ngọc Thái - Dì Ghẻ Con Chồng
DYEAR=2010
DGENRE=
TTITLE0=Kẻ trắng tay
TTITLE1=Gọi đò
TTITLE2=Mồ côi
TTITLE3=Tham phú phụ bần
TTITLE4=Xót xa
TTITLE5=Éo le cuộc tình
TTITLE6=Chuyện ngày thơ
TTITLE7=Dì Ghẻ Con Chồng
EXTD=
EXTT0=
EXTT1=
EXTT2=
EXTT3=
EXTT4=
EXTT5=
EXTT6=
EXTT7=
PLAYORDER=
